<svg width="14" height="14" viewBox="0 0 14 14" fill="none" xmlns="http://www.w3.org/2000/svg">
<g clip-path="url(#clip0_0_111)">
<path fill-rule="evenodd" clip-rule="evenodd" d="M2.06035 3.72212C3.28459 2.56495 5.02669 1.5 7 1.5C8.97331 1.5 10.7154 2.56495 11.9397 3.72212C12.5566 4.30529 13.0596 4.92782 13.4119 5.48535C13.5879 5.76397 13.7307 6.03316 13.8309 6.27896C13.9275 6.51569 14 6.76742 14 7C14 7.23258 13.9275 7.48431 13.8309 7.72104C13.7307 7.96684 13.5879 8.23603 13.4119 8.51465C13.0596 9.07218 12.5566 9.6947 11.9397 10.2779C10.7154 11.4351 8.97331 12.5 7 12.5C5.02669 12.5 3.28459 11.4351 2.06035 10.2779C1.44337 9.6947 0.940383 9.07218 0.588109 8.51465C0.41206 8.23603 0.269343 7.96684 0.169088 7.72104C0.0725285 7.48431 0 7.23258 0 7C0 6.76742 0.0725285 6.51569 0.169088 6.27896C0.269343 6.03316 0.41206 5.76397 0.588109 5.48535C0.940383 4.92782 1.44337 4.30529 2.06035 3.72212ZM5.34322 5.34322C5.74273 4.94372 6.31398 4.75 7 4.75C7.68602 4.75 8.25727 4.94372 8.65678 5.34322C9.05628 5.74273 9.25 6.31398 9.25 7C9.25 7.68602 9.05628 8.25727 8.65678 8.65678C8.25727 9.05628 7.68602 9.25 7 9.25C6.31398 9.25 5.74273 9.05628 5.34322 8.65678C4.94372 8.25727 4.75 7.68602 4.75 7C4.75 6.31398 4.94372 5.74273 5.34322 5.34322Z" fill="black"/>
</g>
<defs>
<clipPath id="clip0_0_111">
<rect width="14" height="14" fill="white"/>
</clipPath>
</defs>
</svg>
