<svg xmlns="http://www.w3.org/2000/svg" viewBox="300.0 180.0 245.0 200.0" fill="none">
<path d="M289.5 356.13 L289.5 188.31 C289.5 187.56 289.57 186.83 289.72 186.1 C289.86 185.37 290.08 184.66 290.36 183.97 C290.65 183.28 291.0 182.63 291.41 182.01 C291.82 181.39 292.29 180.82 292.82 180.29 C293.35 179.76 293.92 179.29 294.54 178.88 C295.16 178.47 295.81 178.12 296.5 177.83 C297.19 177.55 297.9 177.33 298.63 177.19 C299.36 177.04 300.09 176.97 300.84 176.97 L527.16 176.97 C527.91 176.97 528.64 177.04 529.37 177.19 C530.1 177.33 530.81 177.55 531.5 177.83 C532.19 178.12 532.84 178.47 533.46 178.88 C534.08 179.29 534.65 179.76 535.18 180.29 C535.71 180.82 536.18 181.39 536.59 182.01 C537.0 182.63 537.35 183.28 537.64 183.97 C537.92 184.66 538.14 185.37 538.28 186.1 C538.43 186.83 538.5 187.56 538.5 188.31 L538.5 356.13 C538.5 356.88 538.43 357.61 538.28 358.34 C538.14 359.07 537.92 359.78 537.64 360.47 C537.35 361.16 537.0 361.81 536.59 362.43 C536.18 363.05 535.71 363.62 535.18 364.15 C534.65 364.68 534.08 365.15 533.46 365.56 C532.84 365.97 532.19 366.32 531.5 366.61 C530.81 366.89 530.1 367.11 529.37 367.25 C528.64 367.4 527.91 367.47 527.16 367.47 L300.84 367.47 C300.09 367.47 299.36 367.4 298.63 367.25 C297.9 367.11 297.19 366.89 296.5 366.61 C295.81 366.32 295.16 365.97 294.54 365.56 C293.92 365.15 293.35 364.68 292.82 364.15 C292.29 363.62 291.82 363.05 291.41 362.43 C291.0 361.81 290.65 361.16 290.36 360.47 C290.08 359.78 289.86 359.07 289.72 358.34 C289.57 357.61 289.5 356.88 289.5 356.13 Z" fill="#f4f1ee" stroke="none"/>
<path d="M314.05 202.28 L387.75 202.28 C388.14 202.28 388.52 202.31 388.9 202.39 C389.28 202.46 389.65 202.58 390.01 202.72 C390.37 202.87 390.71 203.05 391.03 203.27 C391.35 203.48 391.65 203.73 391.92 204.0 C392.2 204.28 392.44 204.57 392.66 204.9 C392.87 205.22 393.05 205.56 393.2 205.92 C393.35 206.27 393.46 206.64 393.54 207.02 C393.61 207.4 393.65 207.78 393.65 208.17 L393.65 332.72 C393.65 333.11 393.61 333.49 393.54 333.87 C393.46 334.25 393.35 334.62 393.2 334.98 C393.05 335.34 392.87 335.68 392.66 336.0 C392.44 336.32 392.2 336.62 391.92 336.89 C391.65 337.17 391.35 337.41 391.03 337.63 C390.71 337.84 390.37 338.02 390.01 338.17 C389.65 338.32 389.28 338.43 388.9 338.51 C388.52 338.58 388.14 338.62 387.75 338.62 L314.05 338.62 C313.67 338.62 313.28 338.58 312.9 338.51 C312.52 338.43 312.16 338.32 311.8 338.17 C311.44 338.02 311.1 337.84 310.78 337.63 C310.46 337.41 310.16 337.17 309.89 336.89 C309.61 336.62 309.37 336.32 309.15 336.0 C308.94 335.68 308.76 335.34 308.61 334.98 C308.46 334.62 308.35 334.25 308.27 333.87 C308.2 333.49 308.16 333.11 308.16 332.72 L308.16 208.17 C308.16 207.78 308.2 207.4 308.27 207.02 C308.35 206.64 308.46 206.27 308.61 205.92 C308.76 205.56 308.94 205.22 309.15 204.9 C309.37 204.57 309.61 204.28 309.89 204.0 C310.16 203.73 310.46 203.48 310.78 203.27 C311.1 203.05 311.44 202.87 311.8 202.72 C312.16 202.58 312.52 202.46 312.9 202.39 C313.28 202.31 313.67 202.28 314.05 202.28 Z" fill="#ffffff" stroke="none"/>
<path d="M314.05 202.28 L387.75 202.28 C388.14 202.28 388.52 202.31 388.9 202.39 C389.28 202.46 389.65 202.58 390.01 202.72 C390.37 202.87 390.71 203.05 391.03 203.27 C391.35 203.48 391.65 203.73 391.92 204.0 C392.2 204.28 392.44 204.57 392.66 204.9 C392.87 205.22 393.05 205.56 393.2 205.92 C393.35 206.27 393.46 206.64 393.54 207.02 C393.61 207.4 393.65 207.78 393.65 208.17 L393.65 332.72 C393.65 333.11 393.61 333.49 393.54 333.87 C393.46 334.25 393.35 334.62 393.2 334.98 C393.05 335.34 392.87 335.68 392.66 336.0 C392.44 336.32 392.2 336.62 391.92 336.89 C391.65 337.17 391.35 337.41 391.03 337.63 C390.71 337.84 390.37 338.02 390.01 338.17 C389.65 338.32 389.28 338.43 388.9 338.51 C388.52 338.58 388.14 338.62 387.75 338.62 L314.05 338.62 C313.67 338.62 313.28 338.58 312.9 338.51 C312.52 338.43 312.16 338.32 311.8 338.17 C311.44 338.02 311.1 337.84 310.78 337.63 C310.46 337.41 310.16 337.17 309.89 336.89 C309.61 336.62 309.37 336.32 309.15 336.0 C308.94 335.68 308.76 335.34 308.61 334.98 C308.46 334.62 308.35 334.25 308.27 333.87 C308.2 333.49 308.16 333.11 308.16 332.72 L308.16 208.17 C308.16 207.78 308.2 207.4 308.27 207.02 C308.35 206.64 308.46 206.27 308.61 205.92 C308.76 205.56 308.94 205.22 309.15 204.9 C309.37 204.57 309.61 204.28 309.89 204.0 C310.16 203.73 310.46 203.48 310.78 203.27 C311.1 203.05 311.44 202.87 311.8 202.72 C312.16 202.58 312.52 202.46 312.9 202.39 C313.28 202.31 313.67 202.28 314.05 202.28 Z" fill="none" stroke="#e5ddd4" stroke-width="0.37"/>
<path d="M439.34 202.28 L513.04 202.28 C513.43 202.28 513.81 202.31 514.19 202.39 C514.57 202.46 514.94 202.58 515.3 202.72 C515.66 202.87 516.0 203.05 516.32 203.27 C516.64 203.48 516.94 203.73 517.21 204.0 C517.49 204.28 517.73 204.57 517.95 204.9 C518.16 205.22 518.34 205.56 518.49 205.92 C518.64 206.27 518.75 206.64 518.83 207.02 C518.9 207.4 518.94 207.78 518.94 208.17 L518.94 332.72 C518.94 333.11 518.9 333.49 518.83 333.87 C518.75 334.25 518.64 334.62 518.49 334.98 C518.34 335.34 518.16 335.68 517.95 336.0 C517.73 336.32 517.49 336.62 517.21 336.89 C516.94 337.17 516.64 337.41 516.32 337.63 C516.0 337.84 515.66 338.02 515.3 338.17 C514.94 338.32 514.57 338.43 514.19 338.51 C513.81 338.58 513.43 338.62 513.04 338.62 L439.34 338.62 C438.96 338.62 438.57 338.58 438.19 338.51 C437.81 338.43 437.44 338.32 437.09 338.17 C436.73 338.02 436.39 337.84 436.07 337.63 C435.75 337.41 435.45 337.17 435.17 336.89 C434.9 336.62 434.66 336.32 434.44 336.0 C434.23 335.68 434.04 335.34 433.9 334.98 C433.75 334.62 433.64 334.25 433.56 333.87 C433.49 333.49 433.45 333.11 433.45 332.72 L433.45 208.17 C433.45 207.78 433.49 207.4 433.56 207.02 C433.64 206.64 433.75 206.27 433.9 205.92 C434.04 205.56 434.23 205.22 434.44 204.9 C434.66 204.57 434.9 204.28 435.17 204.0 C435.45 203.73 435.75 203.48 436.07 203.27 C436.39 203.05 436.73 202.87 437.09 202.72 C437.44 202.58 437.81 202.46 438.19 202.39 C438.57 202.31 438.96 202.28 439.34 202.28 Z" fill="#ffffff" stroke="none"/>
<path d="M439.34 202.28 L513.04 202.28 C513.43 202.28 513.81 202.31 514.19 202.39 C514.57 202.46 514.94 202.58 515.3 202.72 C515.66 202.87 516.0 203.05 516.32 203.27 C516.64 203.48 516.94 203.73 517.21 204.0 C517.49 204.28 517.73 204.57 517.95 204.9 C518.16 205.22 518.34 205.56 518.49 205.92 C518.64 206.27 518.75 206.64 518.83 207.02 C518.9 207.4 518.94 207.78 518.94 208.17 L518.94 332.72 C518.94 333.11 518.9 333.49 518.83 333.87 C518.75 334.25 518.64 334.62 518.49 334.98 C518.34 335.34 518.16 335.68 517.95 336.0 C517.73 336.32 517.49 336.62 517.21 336.89 C516.94 337.17 516.64 337.41 516.32 337.63 C516.0 337.84 515.66 338.02 515.3 338.17 C514.94 338.32 514.57 338.43 514.19 338.51 C513.81 338.58 513.43 338.62 513.04 338.62 L439.34 338.62 C438.96 338.62 438.57 338.58 438.19 338.51 C437.81 338.43 437.44 338.32 437.09 338.17 C436.73 338.02 436.39 337.84 436.07 337.63 C435.75 337.41 435.45 337.17 435.17 336.89 C434.9 336.62 434.66 336.32 434.44 336.0 C434.23 335.68 434.04 335.34 433.9 334.98 C433.75 334.62 433.64 334.25 433.56 333.87 C433.49 333.49 433.45 333.11 433.45 332.72 L433.45 208.17 C433.45 207.78 433.49 207.4 433.56 207.02 C433.64 206.64 433.75 206.27 433.9 205.92 C434.04 205.56 434.23 205.22 434.44 204.9 C434.66 204.57 434.9 204.28 435.17 204.0 C435.45 203.73 435.75 203.48 436.07 203.27 C436.39 203.05 436.73 202.87 437.09 202.72 C437.44 202.58 437.81 202.46 438.19 202.39 C438.57 202.31 438.96 202.28 439.34 202.28 Z" fill="none" stroke="#185e8a" stroke-width="0.37" stroke-opacity="0.5"/>
<path d="M324.0 236.91 L377.8 236.91 C378.31 236.91 378.82 236.96 379.31 237.06 C379.81 237.16 380.3 237.31 380.77 237.5 C381.24 237.7 381.68 237.94 382.1 238.22 C382.53 238.5 382.92 238.82 383.28 239.18 C383.64 239.54 383.96 239.93 384.24 240.35 C384.52 240.78 384.76 241.22 384.95 241.69 C385.15 242.16 385.3 242.65 385.39 243.14 C385.49 243.64 385.54 244.14 385.54 244.65 C385.54 245.16 385.49 245.66 385.39 246.16 C385.3 246.66 385.15 247.15 384.95 247.61 C384.76 248.08 384.52 248.53 384.24 248.95 C383.96 249.37 383.64 249.77 383.28 250.12 C382.92 250.48 382.53 250.81 382.1 251.09 C381.68 251.37 381.24 251.61 380.77 251.8 C380.3 252.0 379.81 252.14 379.31 252.24 C378.82 252.34 378.31 252.39 377.8 252.39 L324.0 252.39 C323.5 252.39 322.99 252.34 322.49 252.24 C322.0 252.14 321.51 252.0 321.04 251.8 C320.57 251.61 320.13 251.37 319.71 251.09 C319.28 250.81 318.89 250.48 318.53 250.12 C318.17 249.77 317.85 249.37 317.57 248.95 C317.29 248.53 317.05 248.08 316.85 247.61 C316.66 247.15 316.51 246.66 316.41 246.16 C316.32 245.66 316.27 245.16 316.27 244.65 C316.27 244.14 316.32 243.64 316.41 243.14 C316.51 242.65 316.66 242.16 316.85 241.69 C317.05 241.22 317.29 240.78 317.57 240.35 C317.85 239.93 318.17 239.54 318.53 239.18 C318.89 238.82 319.28 238.5 319.71 238.22 C320.13 237.94 320.57 237.7 321.04 237.5 C321.51 237.31 322.0 237.16 322.49 237.06 C322.99 236.96 323.5 236.91 324.0 236.91 Z" fill="#f4f1ee" stroke="none"/>
<path d="M323.64 245.02 L355.33 245.02" fill="none" stroke="#998675" stroke-width="0.48"/>
<path d="M449.29 236.91 L503.09 236.91 C503.6 236.91 504.1 236.96 504.6 237.06 C505.1 237.16 505.59 237.31 506.05 237.5 C506.52 237.7 506.97 237.94 507.39 238.22 C507.82 238.5 508.21 238.82 508.57 239.18 C508.92 239.54 509.25 239.93 509.53 240.35 C509.81 240.78 510.05 241.22 510.24 241.69 C510.44 242.16 510.58 242.65 510.68 243.14 C510.78 243.64 510.83 244.14 510.83 244.65 C510.83 245.16 510.78 245.66 510.68 246.16 C510.58 246.66 510.44 247.15 510.24 247.61 C510.05 248.08 509.81 248.53 509.53 248.95 C509.25 249.37 508.92 249.77 508.57 250.12 C508.21 250.48 507.82 250.81 507.39 251.09 C506.97 251.37 506.52 251.61 506.05 251.8 C505.59 252.0 505.1 252.14 504.6 252.24 C504.1 252.34 503.6 252.39 503.09 252.39 L449.29 252.39 C448.78 252.39 448.28 252.34 447.78 252.24 C447.28 252.14 446.8 252.0 446.33 251.8 C445.86 251.61 445.42 251.37 444.99 251.09 C444.57 250.81 444.18 250.48 443.82 250.12 C443.46 249.77 443.14 249.37 442.86 248.95 C442.58 248.53 442.34 248.08 442.14 247.61 C441.95 247.15 441.8 246.66 441.7 246.16 C441.6 245.66 441.55 245.16 441.55 244.65 C441.55 244.14 441.6 243.64 441.7 243.14 C441.8 242.65 441.95 242.16 442.14 241.69 C442.34 241.22 442.58 240.78 442.86 240.35 C443.14 239.93 443.46 239.54 443.82 239.18 C444.18 238.82 444.57 238.5 444.99 238.22 C445.42 237.94 445.86 237.7 446.33 237.5 C446.8 237.31 447.28 237.16 447.78 237.06 C448.28 236.96 448.78 236.91 449.29 236.91 Z" fill="#185e8a" stroke="none" fill-opacity="0.9"/>
<path d="M389.97 244.4 L391.48 244.4 L391.48 244.91 L389.97 244.91 L389.97 244.4 Z M393.66 244.4 L395.16 244.4 L395.16 244.91 L393.66 244.91 L393.66 244.4 Z M397.38 244.4 L398.91 244.4 L398.91 244.91 L397.38 244.91 L397.38 244.4 Z M401.1 244.4 L402.5 244.4 L402.5 244.91 L401.1 244.91 L401.1 244.4 Z M404.76 244.4 L406.22 244.4 L406.22 244.91 L404.76 244.91 L404.76 244.4 Z M408.4 244.4 L409.87 244.4 L409.87 244.91 L408.4 244.91 L408.4 244.4 Z M412.07 244.4 L413.51 244.4 L413.51 244.91 L412.07 244.91 L412.07 244.4 Z M415.72 244.4 L417.22 244.4 L417.22 244.91 L415.72 244.91 L415.72 244.4 Z M419.35 244.4 L420.83 244.4 L420.83 244.91 L419.35 244.91 L419.35 244.4 Z M423.11 244.4 L424.57 244.4 L424.57 244.91 L423.11 244.91 L423.11 244.4 Z M426.78 244.4 L428.26 244.4 L428.26 244.91 L426.78 244.91 L426.78 244.4 Z M430.46 244.4 L431.94 244.4 L431.94 244.91 L430.46 244.91 L430.46 244.4 Z M434.14 244.4 L435.61 244.4 L435.61 244.91 L434.14 244.91 L434.14 244.4 Z" fill="#d6cec3" stroke="none"/>
<path d="M324.0 260.5 L377.8 260.5 C378.31 260.5 378.82 260.55 379.31 260.65 C379.81 260.75 380.3 260.89 380.77 261.09 C381.24 261.28 381.68 261.52 382.1 261.8 C382.53 262.08 382.92 262.41 383.28 262.76 C383.64 263.12 383.96 263.52 384.24 263.94 C384.52 264.36 384.76 264.81 384.95 265.28 C385.15 265.74 385.3 266.23 385.39 266.73 C385.49 267.23 385.54 267.73 385.54 268.24 C385.54 268.74 385.49 269.25 385.39 269.75 C385.3 270.24 385.15 270.73 384.95 271.2 C384.76 271.67 384.52 272.11 384.24 272.54 C383.96 272.96 383.64 273.35 383.28 273.71 C382.92 274.07 382.53 274.39 382.1 274.67 C381.68 274.95 381.24 275.19 380.77 275.39 C380.3 275.58 379.81 275.73 379.31 275.83 C378.82 275.93 378.31 275.98 377.8 275.98 L324.0 275.98 C323.5 275.98 322.99 275.93 322.49 275.83 C322.0 275.73 321.51 275.58 321.04 275.39 C320.57 275.19 320.13 274.95 319.71 274.67 C319.28 274.39 318.89 274.07 318.53 273.71 C318.17 273.35 317.85 272.96 317.57 272.54 C317.29 272.11 317.05 271.67 316.85 271.2 C316.66 270.73 316.51 270.24 316.41 269.75 C316.32 269.25 316.27 268.74 316.27 268.24 C316.27 267.73 316.32 267.23 316.41 266.73 C316.51 266.23 316.66 265.74 316.85 265.28 C317.05 264.81 317.29 264.36 317.57 263.94 C317.85 263.52 318.17 263.12 318.53 262.76 C318.89 262.41 319.28 262.08 319.71 261.8 C320.13 261.52 320.57 261.28 321.04 261.09 C321.51 260.89 322.0 260.75 322.49 260.65 C322.99 260.55 323.5 260.5 324.0 260.5 Z" fill="#f4f1ee" stroke="none"/>
<path d="M323.64 268.61 L357.54 268.61" fill="none" stroke="#998675" stroke-width="0.48"/>
<path d="M449.29 260.5 L503.09 260.5 C503.6 260.5 504.1 260.55 504.6 260.65 C505.1 260.75 505.59 260.89 506.05 261.09 C506.52 261.28 506.97 261.52 507.39 261.8 C507.82 262.08 508.21 262.41 508.57 262.76 C508.92 263.12 509.25 263.52 509.53 263.94 C509.81 264.36 510.05 264.81 510.24 265.28 C510.44 265.74 510.58 266.23 510.68 266.73 C510.78 267.23 510.83 267.73 510.83 268.24 C510.83 268.74 510.78 269.25 510.68 269.75 C510.58 270.24 510.44 270.73 510.24 271.2 C510.05 271.67 509.81 272.11 509.53 272.54 C509.25 272.96 508.92 273.35 508.57 273.71 C508.21 274.07 507.82 274.39 507.39 274.67 C506.97 274.95 506.52 275.19 506.05 275.39 C505.59 275.58 505.1 275.73 504.6 275.83 C504.1 275.93 503.6 275.98 503.09 275.98 L449.29 275.98 C448.78 275.98 448.28 275.93 447.78 275.83 C447.28 275.73 446.8 275.58 446.33 275.39 C445.86 275.19 445.42 274.95 444.99 274.67 C444.57 274.39 444.18 274.07 443.82 273.71 C443.46 273.35 443.14 272.96 442.86 272.54 C442.58 272.11 442.34 271.67 442.14 271.2 C441.95 270.73 441.8 270.24 441.7 269.75 C441.6 269.25 441.55 268.74 441.55 268.24 C441.55 267.73 441.6 267.23 441.7 266.73 C441.8 266.23 441.95 265.74 442.14 265.28 C442.34 264.81 442.58 264.36 442.86 263.94 C443.14 263.52 443.46 263.12 443.82 262.76 C444.18 262.41 444.57 262.08 444.99 261.8 C445.42 261.52 445.86 261.28 446.33 261.09 C446.8 260.89 447.28 260.75 447.78 260.65 C448.28 260.55 448.78 260.5 449.29 260.5 Z" fill="#185e8a" stroke="none" fill-opacity="0.12"/>
<path d="M389.97 267.98 L391.48 267.98 L391.48 268.49 L389.97 268.49 L389.97 267.98 Z M393.66 267.98 L395.16 267.98 L395.16 268.49 L393.66 268.49 L393.66 267.98 Z M397.38 267.98 L398.91 267.98 L398.91 268.49 L397.38 268.49 L397.38 267.98 Z M401.1 267.98 L402.5 267.98 L402.5 268.49 L401.1 268.49 L401.1 267.98 Z M404.76 267.98 L406.22 267.98 L406.22 268.49 L404.76 268.49 L404.76 267.98 Z M408.4 267.98 L409.87 267.98 L409.87 268.49 L408.4 268.49 L408.4 267.98 Z M412.07 267.98 L413.51 267.98 L413.51 268.49 L412.07 268.49 L412.07 267.98 Z M415.72 267.98 L417.22 267.98 L417.22 268.49 L415.72 268.49 L415.72 267.98 Z M419.35 267.98 L420.83 267.98 L420.83 268.49 L419.35 268.49 L419.35 267.98 Z M423.11 267.98 L424.57 267.98 L424.57 268.49 L423.11 268.49 L423.11 267.98 Z M426.78 267.98 L428.26 267.98 L428.26 268.49 L426.78 268.49 L426.78 267.98 Z M430.46 267.98 L431.94 267.98 L431.94 268.49 L430.46 268.49 L430.46 267.98 Z M434.14 267.98 L435.61 267.98 L435.61 268.49 L434.14 268.49 L434.14 267.98 Z" fill="#d6cec3" stroke="none"/>
<path d="M324.0 284.08 L377.8 284.08 C378.31 284.08 378.82 284.13 379.31 284.23 C379.81 284.33 380.3 284.48 380.77 284.67 C381.24 284.87 381.68 285.1 382.1 285.39 C382.53 285.67 382.92 285.99 383.28 286.35 C383.64 286.71 383.96 287.1 384.24 287.52 C384.52 287.94 384.76 288.39 384.95 288.86 C385.15 289.33 385.3 289.81 385.39 290.31 C385.49 290.81 385.54 291.31 385.54 291.82 C385.54 292.33 385.49 292.83 385.39 293.33 C385.3 293.83 385.15 294.31 384.95 294.78 C384.76 295.25 384.52 295.7 384.24 296.12 C383.96 296.54 383.64 296.93 383.28 297.29 C382.92 297.65 382.53 297.97 382.1 298.25 C381.68 298.54 381.24 298.78 380.77 298.97 C380.3 299.16 379.81 299.31 379.31 299.41 C378.82 299.51 378.31 299.56 377.8 299.56 L324.0 299.56 C323.5 299.56 322.99 299.51 322.49 299.41 C322.0 299.31 321.51 299.16 321.04 298.97 C320.57 298.78 320.13 298.54 319.71 298.25 C319.28 297.97 318.89 297.65 318.53 297.29 C318.17 296.93 317.85 296.54 317.57 296.12 C317.29 295.7 317.05 295.25 316.85 294.78 C316.66 294.31 316.51 293.83 316.41 293.33 C316.32 292.83 316.27 292.33 316.27 291.82 C316.27 291.31 316.32 290.81 316.41 290.31 C316.51 289.81 316.66 289.33 316.85 288.86 C317.05 288.39 317.29 287.94 317.57 287.52 C317.85 287.1 318.17 286.71 318.53 286.35 C318.89 285.99 319.28 285.67 319.71 285.39 C320.13 285.1 320.57 284.87 321.04 284.67 C321.51 284.48 322.0 284.33 322.49 284.23 C322.99 284.13 323.5 284.08 324.0 284.08 Z" fill="#f4f1ee" stroke="none"/>
<path d="M323.64 292.19 L362.7 292.19" fill="none" stroke="#998675" stroke-width="0.48"/>
<path d="M449.29 284.08 L503.09 284.08 C503.6 284.08 504.1 284.13 504.6 284.23 C505.1 284.33 505.59 284.48 506.05 284.67 C506.52 284.87 506.97 285.1 507.39 285.39 C507.82 285.67 508.21 285.99 508.57 286.35 C508.92 286.71 509.25 287.1 509.53 287.52 C509.81 287.94 510.05 288.39 510.24 288.86 C510.44 289.33 510.58 289.81 510.68 290.31 C510.78 290.81 510.83 291.31 510.83 291.82 C510.83 292.33 510.78 292.83 510.68 293.33 C510.58 293.83 510.44 294.31 510.24 294.78 C510.05 295.25 509.81 295.7 509.53 296.12 C509.25 296.54 508.92 296.93 508.57 297.29 C508.21 297.65 507.82 297.97 507.39 298.25 C506.97 298.54 506.52 298.78 506.05 298.97 C505.59 299.16 505.1 299.31 504.6 299.41 C504.1 299.51 503.6 299.56 503.09 299.56 L449.29 299.56 C448.78 299.56 448.28 299.51 447.78 299.41 C447.28 299.31 446.8 299.16 446.33 298.97 C445.86 298.78 445.42 298.54 444.99 298.25 C444.57 297.97 444.18 297.65 443.82 297.29 C443.46 296.93 443.14 296.54 442.86 296.12 C442.58 295.7 442.34 295.25 442.14 294.78 C441.95 294.31 441.8 293.83 441.7 293.33 C441.6 292.83 441.55 292.33 441.55 291.82 C441.55 291.31 441.6 290.81 441.7 290.31 C441.8 289.81 441.95 289.33 442.14 288.86 C442.34 288.39 442.58 287.94 442.86 287.52 C443.14 287.1 443.46 286.71 443.82 286.35 C444.18 285.99 444.57 285.67 444.99 285.39 C445.42 285.1 445.86 284.87 446.33 284.67 C446.8 284.48 447.28 284.33 447.78 284.23 C448.28 284.13 448.78 284.08 449.29 284.08 Z" fill="#185e8a" stroke="none" fill-opacity="0.12"/>
<path d="M389.97 291.56 L391.48 291.56 L391.48 292.08 L389.97 292.08 L389.97 291.56 Z M393.66 291.56 L395.16 291.56 L395.16 292.08 L393.66 292.08 L393.66 291.56 Z M397.38 291.56 L398.91 291.56 L398.91 292.08 L397.38 292.08 L397.38 291.56 Z M401.1 291.56 L402.5 291.56 L402.5 292.08 L401.1 292.08 L401.1 291.56 Z M404.76 291.56 L406.22 291.56 L406.22 292.08 L404.76 292.08 L404.76 291.56 Z M408.4 291.56 L409.87 291.56 L409.87 292.08 L408.4 292.08 L408.4 291.56 Z M412.07 291.56 L413.51 291.56 L413.51 292.08 L412.07 292.08 L412.07 291.56 Z M415.72 291.56 L417.22 291.56 L417.22 292.08 L415.72 292.08 L415.72 291.56 Z M419.35 291.56 L420.83 291.56 L420.83 292.08 L419.35 292.08 L419.35 291.56 Z M423.11 291.56 L424.57 291.56 L424.57 292.08 L423.11 292.08 L423.11 291.56 Z M426.78 291.56 L428.26 291.56 L428.26 292.08 L426.78 292.08 L426.78 291.56 Z M430.46 291.56 L431.94 291.56 L431.94 292.08 L430.46 292.08 L430.46 291.56 Z M434.14 291.56 L435.61 291.56 L435.61 292.08 L434.14 292.08 L434.14 291.56 Z" fill="#d6cec3" stroke="none"/>
<path d="M324.0 307.67 L377.8 307.67 C378.31 307.67 378.82 307.72 379.31 307.81 C379.81 307.91 380.3 308.06 380.77 308.25 C381.24 308.45 381.68 308.69 382.1 308.97 C382.53 309.25 382.92 309.57 383.28 309.93 C383.64 310.29 383.96 310.68 384.24 311.11 C384.52 311.53 384.76 311.97 384.95 312.44 C385.15 312.91 385.3 313.4 385.39 313.89 C385.49 314.39 385.54 314.9 385.54 315.4 C385.54 315.91 385.49 316.42 385.39 316.91 C385.3 317.41 385.15 317.9 384.95 318.37 C384.76 318.84 384.52 319.28 384.24 319.7 C383.96 320.13 383.64 320.52 383.28 320.88 C382.92 321.24 382.53 321.56 382.1 321.84 C381.68 322.12 381.24 322.36 380.77 322.55 C380.3 322.75 379.81 322.89 379.31 322.99 C378.82 323.09 378.31 323.14 377.8 323.14 L324.0 323.14 C323.5 323.14 322.99 323.09 322.49 322.99 C322.0 322.89 321.51 322.75 321.04 322.55 C320.57 322.36 320.13 322.12 319.71 321.84 C319.28 321.56 318.89 321.24 318.53 320.88 C318.17 320.52 317.85 320.13 317.57 319.7 C317.29 319.28 317.05 318.84 316.85 318.37 C316.66 317.9 316.51 317.41 316.41 316.91 C316.32 316.42 316.27 315.91 316.27 315.4 C316.27 314.9 316.32 314.39 316.41 313.89 C316.51 313.4 316.66 312.91 316.85 312.44 C317.05 311.97 317.29 311.53 317.57 311.11 C317.85 310.68 318.17 310.29 318.53 309.93 C318.89 309.57 319.28 309.25 319.71 308.97 C320.13 308.69 320.57 308.45 321.04 308.25 C321.51 308.06 322.0 307.91 322.49 307.81 C322.99 307.72 323.5 307.67 324.0 307.67 Z" fill="#f4f1ee" stroke="none"/>
<path d="M323.64 315.77 L369.7 315.77" fill="none" stroke="#998675" stroke-width="0.48"/>
<path d="M449.29 307.67 L503.09 307.67 C503.6 307.67 504.1 307.72 504.6 307.81 C505.1 307.91 505.59 308.06 506.05 308.25 C506.52 308.45 506.97 308.69 507.39 308.97 C507.82 309.25 508.21 309.57 508.57 309.93 C508.92 310.29 509.25 310.68 509.53 311.11 C509.81 311.53 510.05 311.97 510.24 312.44 C510.44 312.91 510.58 313.4 510.68 313.89 C510.78 314.39 510.83 314.9 510.83 315.4 C510.83 315.91 510.78 316.42 510.68 316.91 C510.58 317.41 510.44 317.9 510.24 318.37 C510.05 318.84 509.81 319.28 509.53 319.7 C509.25 320.13 508.92 320.52 508.57 320.88 C508.21 321.24 507.82 321.56 507.39 321.84 C506.97 322.12 506.52 322.36 506.05 322.55 C505.59 322.75 505.1 322.89 504.6 322.99 C504.1 323.09 503.6 323.14 503.09 323.14 L449.29 323.14 C448.78 323.14 448.28 323.09 447.78 322.99 C447.28 322.89 446.8 322.75 446.33 322.55 C445.86 322.36 445.42 322.12 444.99 321.84 C444.57 321.56 444.18 321.24 443.82 320.88 C443.46 320.52 443.14 320.13 442.86 319.7 C442.58 319.28 442.34 318.84 442.14 318.37 C441.95 317.9 441.8 317.41 441.7 316.91 C441.6 316.42 441.55 315.91 441.55 315.4 C441.55 314.9 441.6 314.39 441.7 313.89 C441.8 313.4 441.95 312.91 442.14 312.44 C442.34 311.97 442.58 311.53 442.86 311.11 C443.14 310.68 443.46 310.29 443.82 309.93 C444.18 309.57 444.57 309.25 444.99 308.97 C445.42 308.69 445.86 308.45 446.33 308.25 C446.8 308.06 447.28 307.91 447.78 307.81 C448.28 307.72 448.78 307.67 449.29 307.67 Z" fill="#185e8a" stroke="none" fill-opacity="0.12"/>
<path d="M389.97 315.15 L391.48 315.15 L391.48 315.66 L389.97 315.66 L389.97 315.15 Z M393.66 315.15 L395.16 315.15 L395.16 315.66 L393.66 315.66 L393.66 315.15 Z M397.38 315.15 L398.91 315.15 L398.91 315.66 L397.38 315.66 L397.38 315.15 Z M401.1 315.15 L402.5 315.15 L402.5 315.66 L401.1 315.66 L401.1 315.15 Z M404.76 315.15 L406.22 315.15 L406.22 315.66 L404.76 315.66 L404.76 315.15 Z M408.4 315.15 L409.87 315.15 L409.87 315.66 L408.4 315.66 L408.4 315.15 Z M412.07 315.15 L413.51 315.15 L413.51 315.66 L412.07 315.66 L412.07 315.15 Z M415.72 315.15 L417.22 315.15 L417.22 315.66 L415.72 315.66 L415.72 315.15 Z M419.35 315.15 L420.83 315.15 L420.83 315.66 L419.35 315.66 L419.35 315.15 Z M423.11 315.15 L424.57 315.15 L424.57 315.66 L423.11 315.66 L423.11 315.15 Z M426.78 315.15 L428.26 315.15 L428.26 315.66 L426.78 315.66 L426.78 315.15 Z M430.46 315.15 L431.94 315.15 L431.94 315.66 L430.46 315.66 L430.46 315.15 Z M434.14 315.15 L435.61 315.15 L435.61 315.66 L434.14 315.66 L434.14 315.15 Z" fill="#d6cec3" stroke="none"/>
<path d="M424.6 270.45 C424.6 271.17 424.53 271.89 424.39 272.6 C424.25 273.32 424.04 274.01 423.76 274.68 C423.48 275.35 423.14 275.99 422.74 276.59 C422.34 277.19 421.88 277.75 421.37 278.26 C420.85 278.78 420.29 279.24 419.69 279.64 C419.09 280.04 418.45 280.38 417.78 280.66 C417.11 280.94 416.42 281.15 415.71 281.29 C414.99 281.43 414.27 281.5 413.55 281.5 C412.82 281.5 412.1 281.43 411.39 281.29 C410.68 281.15 409.99 280.94 409.32 280.66 C408.65 280.38 408.01 280.04 407.41 279.64 C406.8 279.24 406.25 278.78 405.73 278.26 C405.22 277.75 404.76 277.19 404.36 276.59 C403.95 275.99 403.61 275.35 403.34 274.68 C403.06 274.01 402.85 273.32 402.71 272.6 C402.56 271.89 402.49 271.17 402.49 270.45 C402.49 269.72 402.56 269.0 402.71 268.29 C402.85 267.58 403.06 266.89 403.34 266.22 C403.61 265.55 403.95 264.91 404.36 264.31 C404.76 263.7 405.22 263.14 405.73 262.63 C406.25 262.12 406.8 261.66 407.41 261.26 C408.01 260.85 408.65 260.51 409.32 260.23 C409.99 259.96 410.68 259.75 411.39 259.61 C412.1 259.46 412.82 259.39 413.55 259.39 C414.27 259.39 414.99 259.46 415.71 259.61 C416.42 259.75 417.11 259.96 417.78 260.23 C418.45 260.51 419.09 260.85 419.69 261.26 C420.29 261.66 420.85 262.12 421.37 262.63 C421.88 263.14 422.34 263.7 422.74 264.31 C423.14 264.91 423.48 265.55 423.76 266.22 C424.04 266.89 424.25 267.58 424.39 268.29 C424.53 269.0 424.6 269.72 424.6 270.45 Z" fill="#082638" stroke="none"/>
<text x="316.27" y="215.65" font-family="Poppins, Arial, sans-serif" font-size="3.49" fill="#7a6757">H</text>
<text x="318.96" y="215.65" font-family="Poppins, Arial, sans-serif" font-size="3.49" fill="#7a6757">E</text>
<text x="320.9" y="215.65" font-family="Poppins, Arial, sans-serif" font-size="3.49" fill="#7a6757">U</text>
<text x="323.59" y="215.65" font-family="Poppins, Arial, sans-serif" font-size="3.49" fill="#7a6757">T</text>
<text x="326.28" y="215.65" font-family="Poppins, Arial, sans-serif" font-size="3.49" fill="#7a6757">E</text>
<text x="316.27" y="224.5" font-family="Lora, Georgia, serif" font-size="6.63" fill="#1d1d1b">G</text>
<text x="321.52" y="224.5" font-family="Lora, Georgia, serif" font-size="6.63" fill="#1d1d1b">i</text>
<text x="323.77" y="224.5" font-family="Lora, Georgia, serif" font-size="6.63" fill="#1d1d1b">l</text>
<text x="326.02" y="224.5" font-family="Lora, Georgia, serif" font-size="6.63" fill="#1d1d1b">t</text>
<text x="330.52" y="224.5" font-family="Lora, Georgia, serif" font-size="6.63" fill="#1d1d1b">a</text>
<text x="334.27" y="224.5" font-family="Lora, Georgia, serif" font-size="6.63" fill="#1d1d1b">l</text>
<text x="336.52" y="224.5" font-family="Lora, Georgia, serif" font-size="6.63" fill="#1d1d1b">s</text>
<text x="341.02" y="224.5" font-family="Lora, Georgia, serif" font-size="6.63" fill="#1d1d1b">g</text>
<text x="344.77" y="224.5" font-family="Lora, Georgia, serif" font-size="6.63" fill="#1d1d1b">e</text>
<text x="348.52" y="224.5" font-family="Lora, Georgia, serif" font-size="6.63" fill="#1d1d1b">s</text>
<text x="351.52" y="224.5" font-family="Lora, Georgia, serif" font-size="6.63" fill="#1d1d1b">e</text>
<text x="355.27" y="224.5" font-family="Lora, Georgia, serif" font-size="6.63" fill="#1d1d1b">t</text>
<text x="358.27" y="224.5" font-family="Lora, Georgia, serif" font-size="6.63" fill="#1d1d1b">z</text>
<text x="362.02" y="224.5" font-family="Lora, Georgia, serif" font-size="6.63" fill="#1d1d1b">t</text>
<text x="441.55" y="215.65" font-family="Poppins, Arial, sans-serif" font-size="3.49" fill="#185e8a">K</text>
<text x="444.24" y="215.65" font-family="Poppins, Arial, sans-serif" font-size="3.49" fill="#185e8a">Ü</text>
<text x="446.94" y="215.65" font-family="Poppins, Arial, sans-serif" font-size="3.49" fill="#185e8a">N</text>
<text x="449.63" y="215.65" font-family="Poppins, Arial, sans-serif" font-size="3.49" fill="#185e8a">F</text>
<text x="451.57" y="215.65" font-family="Poppins, Arial, sans-serif" font-size="3.49" fill="#185e8a">T</text>
<text x="454.26" y="215.65" font-family="Poppins, Arial, sans-serif" font-size="3.49" fill="#185e8a">I</text>
<text x="455.45" y="215.65" font-family="Poppins, Arial, sans-serif" font-size="3.49" fill="#185e8a">G</text>
<text x="441.55" y="224.5" font-family="Lora, Georgia, serif" font-size="6.63" fill="#082638">W</text>
<text x="448.3" y="224.5" font-family="Lora, Georgia, serif" font-size="6.63" fill="#082638">i</text>
<text x="450.55" y="224.5" font-family="Lora, Georgia, serif" font-size="6.63" fill="#082638">r</text>
<text x="453.55" y="224.5" font-family="Lora, Georgia, serif" font-size="6.63" fill="#082638">d</text>
<text x="458.8" y="224.5" font-family="Lora, Georgia, serif" font-size="6.63" fill="#082638">g</text>
<text x="462.55" y="224.5" font-family="Lora, Georgia, serif" font-size="6.63" fill="#082638">e</text>
<text x="466.3" y="224.5" font-family="Lora, Georgia, serif" font-size="6.63" fill="#082638">s</text>
<text x="469.3" y="224.5" font-family="Lora, Georgia, serif" font-size="6.63" fill="#082638">t</text>
<text x="472.3" y="224.5" font-family="Lora, Georgia, serif" font-size="6.63" fill="#082638">a</text>
<text x="476.05" y="224.5" font-family="Lora, Georgia, serif" font-size="6.63" fill="#082638">l</text>
<text x="478.3" y="224.5" font-family="Lora, Georgia, serif" font-size="6.63" fill="#082638">t</text>
<text x="481.3" y="224.5" font-family="Lora, Georgia, serif" font-size="6.63" fill="#082638">e</text>
<text x="485.05" y="224.5" font-family="Lora, Georgia, serif" font-size="6.63" fill="#082638">t</text>
<text x="323.62" y="246.6" font-family="Poppins, Arial, sans-serif" font-size="4.42" fill="#6b635b">V</text>
<text x="326.62" y="246.6" font-family="Poppins, Arial, sans-serif" font-size="4.42" fill="#6b635b">e</text>
<text x="329.62" y="246.6" font-family="Poppins, Arial, sans-serif" font-size="4.42" fill="#6b635b">r</text>
<text x="331.12" y="246.6" font-family="Poppins, Arial, sans-serif" font-size="4.42" fill="#6b635b">t</text>
<text x="332.62" y="246.6" font-family="Poppins, Arial, sans-serif" font-size="4.42" fill="#6b635b">r</text>
<text x="334.12" y="246.6" font-family="Poppins, Arial, sans-serif" font-size="4.42" fill="#6b635b">i</text>
<text x="334.87" y="246.6" font-family="Poppins, Arial, sans-serif" font-size="4.42" fill="#6b635b">e</text>
<text x="337.87" y="246.6" font-family="Poppins, Arial, sans-serif" font-size="4.42" fill="#6b635b">b</text>
<text x="340.87" y="246.6" font-family="Poppins, Arial, sans-serif" font-size="4.42" fill="#6b635b">s</text>
<text x="343.12" y="246.6" font-family="Poppins, Arial, sans-serif" font-size="4.42" fill="#6b635b">w</text>
<text x="346.87" y="246.6" font-family="Poppins, Arial, sans-serif" font-size="4.42" fill="#6b635b">e</text>
<text x="349.87" y="246.6" font-family="Poppins, Arial, sans-serif" font-size="4.42" fill="#6b635b">g</text>
<text x="352.87" y="246.6" font-family="Poppins, Arial, sans-serif" font-size="4.42" fill="#6b635b">e</text>
<text x="448.92" y="246.6" font-family="Poppins, Arial, sans-serif" font-size="4.42" fill="#ffffff" font-weight="600">N</text>
<text x="451.92" y="246.6" font-family="Poppins, Arial, sans-serif" font-size="4.42" fill="#ffffff" font-weight="600">e</text>
<text x="454.92" y="246.6" font-family="Poppins, Arial, sans-serif" font-size="4.42" fill="#ffffff" font-weight="600">u</text>
<text x="457.17" y="246.6" font-family="Poppins, Arial, sans-serif" font-size="4.42" fill="#ffffff" font-weight="600">e</text>
<text x="460.92" y="246.6" font-family="Poppins, Arial, sans-serif" font-size="4.42" fill="#ffffff" font-weight="600">V</text>
<text x="463.92" y="246.6" font-family="Poppins, Arial, sans-serif" font-size="4.42" fill="#ffffff" font-weight="600">e</text>
<text x="466.92" y="246.6" font-family="Poppins, Arial, sans-serif" font-size="4.42" fill="#ffffff" font-weight="600">r</text>
<text x="468.42" y="246.6" font-family="Poppins, Arial, sans-serif" font-size="4.42" fill="#ffffff" font-weight="600">t</text>
<text x="469.92" y="246.6" font-family="Poppins, Arial, sans-serif" font-size="4.42" fill="#ffffff" font-weight="600">r</text>
<text x="471.42" y="246.6" font-family="Poppins, Arial, sans-serif" font-size="4.42" fill="#ffffff" font-weight="600">i</text>
<text x="472.17" y="246.6" font-family="Poppins, Arial, sans-serif" font-size="4.42" fill="#ffffff" font-weight="600">e</text>
<text x="475.17" y="246.6" font-family="Poppins, Arial, sans-serif" font-size="4.42" fill="#ffffff" font-weight="600">b</text>
<text x="478.17" y="246.6" font-family="Poppins, Arial, sans-serif" font-size="4.42" fill="#ffffff" font-weight="600">s</text>
<text x="480.42" y="246.6" font-family="Poppins, Arial, sans-serif" font-size="4.42" fill="#ffffff" font-weight="600">w</text>
<text x="484.17" y="246.6" font-family="Poppins, Arial, sans-serif" font-size="4.42" fill="#ffffff" font-weight="600">e</text>
<text x="487.17" y="246.6" font-family="Poppins, Arial, sans-serif" font-size="4.42" fill="#ffffff" font-weight="600">g</text>
<text x="490.17" y="246.6" font-family="Poppins, Arial, sans-serif" font-size="4.42" fill="#ffffff" font-weight="600">e</text>
<text x="323.62" y="270.19" font-family="Poppins, Arial, sans-serif" font-size="4.42" fill="#6b635b">P</text>
<text x="325.87" y="270.19" font-family="Poppins, Arial, sans-serif" font-size="4.42" fill="#6b635b">r</text>
<text x="327.37" y="270.19" font-family="Poppins, Arial, sans-serif" font-size="4.42" fill="#6b635b">o</text>
<text x="330.37" y="270.19" font-family="Poppins, Arial, sans-serif" font-size="4.42" fill="#6b635b">d</text>
<text x="333.37" y="270.19" font-family="Poppins, Arial, sans-serif" font-size="4.42" fill="#6b635b">u</text>
<text x="335.62" y="270.19" font-family="Poppins, Arial, sans-serif" font-size="4.42" fill="#6b635b">k</text>
<text x="337.87" y="270.19" font-family="Poppins, Arial, sans-serif" font-size="4.42" fill="#6b635b">t</text>
<text x="339.37" y="270.19" font-family="Poppins, Arial, sans-serif" font-size="4.42" fill="#6b635b">p</text>
<text x="342.37" y="270.19" font-family="Poppins, Arial, sans-serif" font-size="4.42" fill="#6b635b">a</text>
<text x="345.37" y="270.19" font-family="Poppins, Arial, sans-serif" font-size="4.42" fill="#6b635b">l</text>
<text x="346.12" y="270.19" font-family="Poppins, Arial, sans-serif" font-size="4.42" fill="#6b635b">e</text>
<text x="349.12" y="270.19" font-family="Poppins, Arial, sans-serif" font-size="4.42" fill="#6b635b">t</text>
<text x="350.62" y="270.19" font-family="Poppins, Arial, sans-serif" font-size="4.42" fill="#6b635b">t</text>
<text x="352.12" y="270.19" font-family="Poppins, Arial, sans-serif" font-size="4.42" fill="#6b635b">e</text>
<text x="448.92" y="270.19" font-family="Poppins, Arial, sans-serif" font-size="4.42" fill="#082638" font-weight="600">K</text>
<text x="451.92" y="270.19" font-family="Poppins, Arial, sans-serif" font-size="4.42" fill="#082638" font-weight="600">o</text>
<text x="454.92" y="270.19" font-family="Poppins, Arial, sans-serif" font-size="4.42" fill="#082638" font-weight="600">o</text>
<text x="457.92" y="270.19" font-family="Poppins, Arial, sans-serif" font-size="4.42" fill="#082638" font-weight="600">p</text>
<text x="460.92" y="270.19" font-family="Poppins, Arial, sans-serif" font-size="4.42" fill="#082638" font-weight="600">e</text>
<text x="463.92" y="270.19" font-family="Poppins, Arial, sans-serif" font-size="4.42" fill="#082638" font-weight="600">r</text>
<text x="465.42" y="270.19" font-family="Poppins, Arial, sans-serif" font-size="4.42" fill="#082638" font-weight="600">a</text>
<text x="469.17" y="270.19" font-family="Poppins, Arial, sans-serif" font-size="4.42" fill="#082638" font-weight="600">t</text>
<text x="470.67" y="270.19" font-family="Poppins, Arial, sans-serif" font-size="4.42" fill="#082638" font-weight="600">i</text>
<text x="471.42" y="270.19" font-family="Poppins, Arial, sans-serif" font-size="4.42" fill="#082638" font-weight="600">o</text>
<text x="474.42" y="270.19" font-family="Poppins, Arial, sans-serif" font-size="4.42" fill="#082638" font-weight="600">n</text>
<text x="476.67" y="270.19" font-family="Poppins, Arial, sans-serif" font-size="4.42" fill="#082638" font-weight="600">e</text>
<text x="479.67" y="270.19" font-family="Poppins, Arial, sans-serif" font-size="4.42" fill="#082638" font-weight="600">n</text>
<text x="323.62" y="293.76" font-family="Poppins, Arial, sans-serif" font-size="4.42" fill="#6b635b">E</text>
<text x="325.87" y="293.76" font-family="Poppins, Arial, sans-serif" font-size="4.42" fill="#6b635b">i</text>
<text x="326.62" y="293.76" font-family="Poppins, Arial, sans-serif" font-size="4.42" fill="#6b635b">g</text>
<text x="329.62" y="293.76" font-family="Poppins, Arial, sans-serif" font-size="4.42" fill="#6b635b">e</text>
<text x="332.62" y="293.76" font-family="Poppins, Arial, sans-serif" font-size="4.42" fill="#6b635b">n</text>
<text x="334.87" y="293.76" font-family="Poppins, Arial, sans-serif" font-size="4.42" fill="#6b635b">s</text>
<text x="337.12" y="293.76" font-family="Poppins, Arial, sans-serif" font-size="4.42" fill="#6b635b">t</text>
<text x="338.62" y="293.76" font-family="Poppins, Arial, sans-serif" font-size="4.42" fill="#6b635b">ä</text>
<text x="341.62" y="293.76" font-family="Poppins, Arial, sans-serif" font-size="4.42" fill="#6b635b">n</text>
<text x="343.87" y="293.76" font-family="Poppins, Arial, sans-serif" font-size="4.42" fill="#6b635b">d</text>
<text x="346.87" y="293.76" font-family="Poppins, Arial, sans-serif" font-size="4.42" fill="#6b635b">i</text>
<text x="347.62" y="293.76" font-family="Poppins, Arial, sans-serif" font-size="4.42" fill="#6b635b">g</text>
<text x="350.62" y="293.76" font-family="Poppins, Arial, sans-serif" font-size="4.42" fill="#6b635b">k</text>
<text x="352.87" y="293.76" font-family="Poppins, Arial, sans-serif" font-size="4.42" fill="#6b635b">e</text>
<text x="355.87" y="293.76" font-family="Poppins, Arial, sans-serif" font-size="4.42" fill="#6b635b">i</text>
<text x="356.62" y="293.76" font-family="Poppins, Arial, sans-serif" font-size="4.42" fill="#6b635b">t</text>
<text x="448.92" y="293.76" font-family="Poppins, Arial, sans-serif" font-size="4.42" fill="#082638" font-weight="600">K</text>
<text x="451.92" y="293.76" font-family="Poppins, Arial, sans-serif" font-size="4.42" fill="#082638" font-weight="600">I</text>
<text x="453.42" y="293.76" font-family="Poppins, Arial, sans-serif" font-size="4.42" fill="#082638" font-weight="600">i</text>
<text x="454.17" y="293.76" font-family="Poppins, Arial, sans-serif" font-size="4.42" fill="#082638" font-weight="600">m</text>
<text x="458.67" y="293.76" font-family="Poppins, Arial, sans-serif" font-size="4.42" fill="#082638" font-weight="600">K</text>
<text x="461.67" y="293.76" font-family="Poppins, Arial, sans-serif" font-size="4.42" fill="#082638" font-weight="600">e</text>
<text x="464.67" y="293.76" font-family="Poppins, Arial, sans-serif" font-size="4.42" fill="#082638" font-weight="600">r</text>
<text x="466.17" y="293.76" font-family="Poppins, Arial, sans-serif" font-size="4.42" fill="#082638" font-weight="600">n</text>
<text x="468.42" y="293.76" font-family="Poppins, Arial, sans-serif" font-size="4.42" fill="#082638" font-weight="600">g</text>
<text x="471.42" y="293.76" font-family="Poppins, Arial, sans-serif" font-size="4.42" fill="#082638" font-weight="600">e</text>
<text x="474.42" y="293.76" font-family="Poppins, Arial, sans-serif" font-size="4.42" fill="#082638" font-weight="600">s</text>
<text x="476.67" y="293.76" font-family="Poppins, Arial, sans-serif" font-size="4.42" fill="#082638" font-weight="600">c</text>
<text x="478.92" y="293.76" font-family="Poppins, Arial, sans-serif" font-size="4.42" fill="#082638" font-weight="600">h</text>
<text x="481.17" y="293.76" font-family="Poppins, Arial, sans-serif" font-size="4.42" fill="#082638" font-weight="600">ä</text>
<text x="484.92" y="293.76" font-family="Poppins, Arial, sans-serif" font-size="4.42" fill="#082638" font-weight="600">f</text>
<text x="486.42" y="293.76" font-family="Poppins, Arial, sans-serif" font-size="4.42" fill="#082638" font-weight="600">t</text>
<text x="323.62" y="317.35" font-family="Poppins, Arial, sans-serif" font-size="4.42" fill="#6b635b">W</text>
<text x="328.12" y="317.35" font-family="Poppins, Arial, sans-serif" font-size="4.42" fill="#6b635b">e</text>
<text x="331.12" y="317.35" font-family="Poppins, Arial, sans-serif" font-size="4.42" fill="#6b635b">r</text>
<text x="332.62" y="317.35" font-family="Poppins, Arial, sans-serif" font-size="4.42" fill="#6b635b">t</text>
<text x="334.12" y="317.35" font-family="Poppins, Arial, sans-serif" font-size="4.42" fill="#6b635b">s</text>
<text x="336.37" y="317.35" font-family="Poppins, Arial, sans-serif" font-size="4.42" fill="#6b635b">c</text>
<text x="339.37" y="317.35" font-family="Poppins, Arial, sans-serif" font-size="4.42" fill="#6b635b">h</text>
<text x="341.62" y="317.35" font-family="Poppins, Arial, sans-serif" font-size="4.42" fill="#6b635b">ö</text>
<text x="344.62" y="317.35" font-family="Poppins, Arial, sans-serif" font-size="4.42" fill="#6b635b">p</text>
<text x="347.62" y="317.35" font-family="Poppins, Arial, sans-serif" font-size="4.42" fill="#6b635b">f</text>
<text x="349.12" y="317.35" font-family="Poppins, Arial, sans-serif" font-size="4.42" fill="#6b635b">u</text>
<text x="351.37" y="317.35" font-family="Poppins, Arial, sans-serif" font-size="4.42" fill="#6b635b">n</text>
<text x="353.62" y="317.35" font-family="Poppins, Arial, sans-serif" font-size="4.42" fill="#6b635b">g</text>
<text x="356.62" y="317.35" font-family="Poppins, Arial, sans-serif" font-size="4.42" fill="#6b635b">s</text>
<text x="358.87" y="317.35" font-family="Poppins, Arial, sans-serif" font-size="4.42" fill="#6b635b">t</text>
<text x="360.37" y="317.35" font-family="Poppins, Arial, sans-serif" font-size="4.42" fill="#6b635b">i</text>
<text x="361.12" y="317.35" font-family="Poppins, Arial, sans-serif" font-size="4.42" fill="#6b635b">e</text>
<text x="364.12" y="317.35" font-family="Poppins, Arial, sans-serif" font-size="4.42" fill="#6b635b">f</text>
<text x="365.62" y="317.35" font-family="Poppins, Arial, sans-serif" font-size="4.42" fill="#6b635b">e</text>
<text x="448.92" y="317.35" font-family="Poppins, Arial, sans-serif" font-size="4.42" fill="#082638" font-weight="600">Z</text>
<text x="452.67" y="317.35" font-family="Poppins, Arial, sans-serif" font-size="4.42" fill="#082638" font-weight="600">u</text>
<text x="454.92" y="317.35" font-family="Poppins, Arial, sans-serif" font-size="4.42" fill="#082638" font-weight="600">s</text>
<text x="457.17" y="317.35" font-family="Poppins, Arial, sans-serif" font-size="4.42" fill="#082638" font-weight="600">a</text>
<text x="460.92" y="317.35" font-family="Poppins, Arial, sans-serif" font-size="4.42" fill="#082638" font-weight="600">t</text>
<text x="462.42" y="317.35" font-family="Poppins, Arial, sans-serif" font-size="4.42" fill="#082638" font-weight="600">z</text>
<text x="465.42" y="317.35" font-family="Poppins, Arial, sans-serif" font-size="4.42" fill="#082638" font-weight="600">s</text>
<text x="467.67" y="317.35" font-family="Poppins, Arial, sans-serif" font-size="4.42" fill="#082638" font-weight="600">e</text>
<text x="470.67" y="317.35" font-family="Poppins, Arial, sans-serif" font-size="4.42" fill="#082638" font-weight="600">r</text>
<text x="472.17" y="317.35" font-family="Poppins, Arial, sans-serif" font-size="4.42" fill="#082638" font-weight="600">v</text>
<text x="475.17" y="317.35" font-family="Poppins, Arial, sans-serif" font-size="4.42" fill="#082638" font-weight="600">i</text>
<text x="475.92" y="317.35" font-family="Poppins, Arial, sans-serif" font-size="4.42" fill="#082638" font-weight="600">c</text>
<text x="478.17" y="317.35" font-family="Poppins, Arial, sans-serif" font-size="4.42" fill="#082638" font-weight="600">e</text>
<text x="481.17" y="317.35" font-family="Poppins, Arial, sans-serif" font-size="4.42" fill="#082638" font-weight="600">s</text>
<text x="410.92" y="274.6" font-family="Lora, Georgia, serif" font-size="11.05" fill="#ffffff">?</text>
</svg>
